<?xml version="1.0" encoding="UTF-8"?>
<svg width="20px" height="18px" viewBox="0 0 20 18" version="1.1" xmlns="http://www.w3.org/2000/svg" xmlns:xlink="http://www.w3.org/1999/xlink">
    <title>Shape</title>
    <g id="Page-1" stroke="none" stroke-width="1" fill="none" fill-rule="evenodd">
        <path d="M19.9997629,9.13471113 C20.0027658,9.34303782 19.9772416,9.55098434 19.9231904,9.75208802 C19.8691392,9.9531917 19.7873117,10.1459319 19.6799601,10.3238459 C19.5729837,10.50176 19.4416093,10.6637074 19.2899657,10.804746 C19.1383221,10.9457847 18.9679107,11.0643941 18.7836111,11.1571527 C18.78774,11.2126558 18.7911182,11.268539 18.792995,11.3244223 C18.7975133,11.4358884 18.7975133,11.5474954 18.792995,11.6589615 C18.7911182,11.7148447 18.78774,11.770728 18.7836111,11.8262311 C18.7836111,15.2324484 14.8648998,18 10.030321,18 C5.19574225,18 1.27703089,15.2324484 1.27703089,11.8262311 C1.27290198,11.770728 1.26952378,11.7148447 1.267647,11.6589615 C1.26312876,11.5474954 1.26312876,11.4358884 1.267647,11.3244223 C1.26952378,11.268539 1.27290198,11.2126558 1.27703089,11.1571527 C0.692650862,10.8850992 0.255605459,10.366998 0.0815236404,9.73992296 C-0.092271444,9.11256046 0.0147748865,8.43954733 0.374300926,7.89919703 C0.733516549,7.35892745 1.30901887,7.00584388 1.94816651,6.93359524 C2.58738695,6.86103169 3.22581831,7.0764724 3.69432027,7.52284043 C4.12403958,7.22785002 4.57426468,6.96472756 5.04147114,6.73553283 C5.50878873,6.5066776 5.99187125,6.31203661 6.48696515,6.15389081 C6.98205904,5.995745 7.48803825,5.87447454 8.0003985,5.79045958 C8.51275875,5.70644462 9.03074933,5.66044548 9.54986598,5.65246216 L10.6609182,0.375866555 C10.673305,0.314661087 10.6977031,0.256877043 10.7326111,0.20517553 C10.7671438,0.153854175 10.8118111,0.109755826 10.8632349,0.0759217475 C10.9150339,0.042087669 10.9728387,0.0188980198 11.0336462,0.00749327422 C11.0940785,-0.00353131314 11.1563875,-0.00239083858 11.2164444,0.0109146979 L14.8949282,0.75602474 C15.2661548,0.110135984 16.0453928,-0.166619174 16.7334194,0.10253282 C17.421446,0.371684815 17.8148186,1.1072909 17.6609228,1.83795493 C17.5074025,2.56861896 16.8520318,3.07803093 16.1155843,3.03963496 C15.3787614,3.00123898 14.778568,2.4264398 14.6997434,1.68361071 L11.4867003,0.999325978 L10.510776,5.74370012 C11.0235116,5.75472471 11.5351212,5.80338496 12.0411004,5.88892055 C13.0543537,6.0599807 14.0379188,6.37828772 14.9613661,6.8339938 C15.4225894,7.06132622 15.8670356,7.32202977 16.2912507,7.61407839 C16.5962695,7.31748118 16.9795452,7.11665758 17.3947958,7.03585779 C17.8100489,6.95477185 18.2395996,6.99715426 18.6315922,7.15788857 C19.0236288,7.31854419 19.361393,7.59065497 19.6041382,7.94139459 C19.8469561,8.29216318 19.9843578,8.70660585 19.9997629,9.13471113 L19.9997629,9.13471113 Z M5.11399555,11.0741612 C5.18974259,11.2560291 5.29998828,11.4213976 5.43948283,11.5605172 C5.57860239,11.7000117 5.74397093,11.8102574 5.92583882,11.8860044 C6.10787766,11.9612884 6.30294948,12 6.49994139,12 C7.10666768,12 7.65339632,11.6343893 7.88588723,11.0741612 C8.11800316,10.5135581 7.98938319,9.86858328 7.56039995,9.43960005 C7.13141671,9.01061681 6.48644192,8.88199684 5.92583882,9.11411277 C5.36561071,9.34660368 5,9.89333232 5,10.5000586 C5,10.6969259 5.03862349,10.8919183 5.11399555,11.0741612 L5.11399555,11.0741612 Z M13.8715199,14.7814662 C13.9522867,14.6991318 13.9983829,14.5867452 14,14.4690069 C14.0015348,14.3508569 13.9578025,14.2372353 13.8790056,14.1528425 C13.8002088,14.0684497 13.6926511,14.020284 13.5799716,14.0186373 C13.4668981,14.0169906 13.3581584,14.0626863 13.267148,14.1339056 C13.0301757,14.31151 12.7792296,14.4678182 12.5170019,14.6011537 C12.2547583,14.7345591 11.9822039,14.8445919 11.7022423,14.93008 C11.4225134,15.0152961 11.1360868,15.075812 10.8465083,15.1108041 C10.5565359,15.1457963 10.2645935,15.1548531 9.9734391,15.1383862 C9.68267867,15.1519714 9.39113028,15.1396212 9.10233977,15.1017473 C8.81348063,15.0642494 8.52823806,15.0008934 8.2497577,14.912378 C7.97081681,14.8242802 7.70014958,14.7114819 7.43972595,14.57563 C7.17930231,14.4397782 6.93030422,14.2808726 6.69548957,14.1009718 C6.61393481,14.0309875 6.51031694,13.995172 6.40472914,14.0005237 C6.29914134,14.0058755 6.19946331,14.0523945 6.12460629,14.1302005 C6.05014325,14.2084183 6.00562303,14.3125714 6.00050123,14.4228996 C5.99537943,14.5332278 6.02965607,14.6414976 6.0966334,14.7267138 C6.37360438,14.9449002 6.66791067,15.1375628 6.97640039,15.3030551 C7.28489011,15.4685474 7.6067753,15.6056343 7.93772212,15.7134925 C8.26866895,15.8213507 8.60788945,15.8991567 8.95183776,15.9464991 C9.29578607,15.9934297 9.64288626,16.0094849 9.98919847,15.9946647 C10.3355107,16.0094849 10.6826109,15.9934297 11.0265592,15.9464991 C11.7154472,15.8518204 12.3836463,15.6341731 13.0019966,15.3030551 C13.3104863,15.1375628 13.6047926,14.9449002 13.8817635,14.7267138 L13.8715199,14.7814662 Z M12.484453,11.9999105 C12.6876121,12.0021163 12.8892718,11.9635159 13.0770628,11.8870506 C13.2648538,11.8102176 13.4346528,11.69699 13.5763394,11.553985 C13.718026,11.4109801 13.8282267,11.2411387 13.9009442,11.0547543 C13.9737132,10.8685867 14.007002,10.6698186 13.9987754,10.470603 C13.9987754,9.87579055 13.6333139,9.33979766 13.0733145,9.11187201 C12.5129402,8.88431399 11.8682287,9.01040834 11.4394206,9.43096792 C11.0106125,9.85152749 10.882045,10.4838374 11.1140662,11.0334323 C11.3464622,11.5826595 11.8929677,11.941091 12.4994463,11.941091 L12.484453,11.9999105 Z" id="Shape" fill="#FFFFFF" fill-rule="nonzero"></path>
    </g>
</svg>