<?xml version="1.0" encoding="UTF-8"?>
<svg width="17px" height="17px" viewBox="0 0 17 17" version="1.1" xmlns="http://www.w3.org/2000/svg" xmlns:xlink="http://www.w3.org/1999/xlink">
    <title>Whatsapp</title>
    <g id="Page-1" stroke="none" stroke-width="1" fill="none" fill-rule="evenodd">
        <path d="M8.51096024,0 C13.191863,0 17,3.80406094 17,8.47988806 C17,13.1557152 13.191863,16.9597761 8.51096024,16.9597761 C7.05242154,16.9597761 5.62423018,16.5868394 4.3607891,15.8786859 L0,17 L1.19058615,12.7760123 C0.424969333,11.4767541 0.0218671469,9.99848632 0.0218671469,8.47988806 C0.0218671469,3.80406094 3.83005744,0 8.51096024,0 Z M8.50002721,1.30769231 C4.53416742,1.30769231 1.30769231,4.53415522 1.30769231,8.5 C1.30769231,9.88184471 1.7004309,11.2237464 2.44335278,12.3806257 L2.6219,12.6586489 L1.92234969,15.1432811 L4.49297259,14.4815542 L4.7580997,14.6434488 C5.88206019,15.3296095 7.17602418,15.6923077 8.50002721,15.6923077 C12.465887,15.6923077 15.6923077,12.4658448 15.6923077,8.5 C15.6923077,4.53415522 12.465887,1.30769231 8.50002721,1.30769231 Z M5.82150417,4.20527723 L6.37174564,4.23527199 C6.48005712,4.2411857 6.57568874,4.3081012 6.61836336,4.40794169 L6.61836336,4.40794169 L7.41996416,6.28333382 C7.46279861,6.38349396 7.44479109,6.49937072 7.37350691,6.58178974 L7.37350691,6.58178974 L6.67579561,7.38893132 C6.61926906,7.45440835 6.6093596,7.54758925 6.64921055,7.62436093 C7.56812659,9.39442508 9.2428255,10.0958125 9.74277379,10.2715189 C9.82801646,10.3014604 9.92242273,10.2731172 9.97756408,10.2016199 L9.97756408,10.2016199 L10.7076143,9.25521314 C10.788808,9.14999171 10.9319624,9.11482911 11.0526873,9.17044995 L11.0526873,9.17044995 L12.9123096,10.0276183 C13.0334607,10.0834523 13.0996836,10.2157915 13.0717666,10.3462128 L13.0717666,10.3462128 L12.9839134,10.7565498 C12.8848188,11.219524 12.6098579,11.6290618 12.2109755,11.8842038 C11.7073511,12.2063678 11.0546053,12.3645463 10.2248211,12.1299158 C7.64979973,11.4017835 6.19358845,9.69693003 5.4121795,8.63139659 C4.63077055,7.56586314 4.32885165,6.5003297 4.52421721,5.63016182 C4.65522455,5.04656915 5.08175758,4.59872545 5.34851388,4.36707848 C5.47914828,4.25359917 5.64867465,4.19584726 5.82150417,4.20527723 L5.82150417,4.20527723 Z" id="Whatsapp" fill="#FFFFFF" fill-rule="nonzero"></path>
    </g>
</svg>